<!DOCTYPE svg PUBLIC "-//W3C//DTD SVG 1.1//EN" "http://www.w3.org/Graphics/SVG/1.1/DTD/svg11.dtd">
<!-- Uploaded to: SVG Repo, www.svgrepo.com, Transformed by: SVG Repo Mixer Tools -->
<svg height="800px" width="800px" version="1.1" id="Layer_1" xmlns="http://www.w3.org/2000/svg" xmlns:xlink="http://www.w3.org/1999/xlink" viewBox="0 0 512.001 512.001" xml:space="preserve" fill="#ffffff" stroke="#ffffff">
<g id="SVGRepo_bgCarrier" stroke-width="0"/>
<g id="SVGRepo_tracerCarrier" stroke-linecap="round" stroke-linejoin="round"/>
<g id="SVGRepo_iconCarrier"> <path style="fill:#FF3C63;" d="M487.078,110.123H24.923C11.158,110.123,0,121.282,0,135.046v277.923 c0,13.764,11.158,24.923,24.923,24.923h462.155c13.764,0,24.923-11.158,24.923-24.923V135.046 C512,121.282,500.842,110.123,487.078,110.123z"/> <path style="fill:#EEE5DD;" d="M364.432,74.11C304.547,74.11,256,84.992,256,98.415c0-13.423-48.547-24.305-108.432-24.305 S39.136,84.992,39.136,98.415v336.54c0-13.423,48.547-24.305,108.432-24.305S256,421.532,256,434.955 c0-13.423,48.547-24.305,108.432-24.305s108.432,10.882,108.432,24.305V98.416C472.864,84.992,424.318,74.11,364.432,74.11z"/> <g> <path style="fill:#DDCBBD;" d="M222.667,316.227H72.469c-4.644,0-8.41-3.765-8.41-8.41V130.889c0-4.644,3.765-8.41,8.41-8.41 h150.197c4.644,0,8.41,3.765,8.41,8.41v176.928C231.077,312.463,227.311,316.227,222.667,316.227z M80.878,299.407h133.378V139.299 H80.878V299.407z"/> <path style="fill:#DDCBBD;" d="M147.568,302.862c-46.046,0-83.509-37.462-83.509-83.509s37.462-83.509,83.509-83.509 s83.509,37.462,83.509,83.509C231.077,265.4,193.614,302.862,147.568,302.862z M147.568,152.665 c-36.772,0-66.689,29.916-66.689,66.689s29.916,66.689,66.689,66.689s66.689-29.916,66.689-66.689S184.34,152.665,147.568,152.665z "/> <polygon style="fill:#DDCBBD;" points="147.568,283.831 132.12,236.288 82.13,236.288 122.573,206.904 107.125,159.361 147.568,188.744 188.011,159.361 172.563,206.904 213.006,236.288 163.016,236.288 "/> <path style="fill:#DDCBBD;" d="M222.667,349.398H72.469c-4.644,0-8.41-3.765-8.41-8.41c0-4.644,3.765-8.41,8.41-8.41h150.197 c4.644,0,8.41,3.765,8.41,8.41C231.076,345.633,227.311,349.398,222.667,349.398z"/> <path style="fill:#DDCBBD;" d="M439.531,143.577H289.334c-4.644,0-8.41-3.765-8.41-8.41c0-4.644,3.765-8.41,8.41-8.41h150.197 c4.644,0,8.41,3.765,8.41,8.41C447.941,139.811,444.176,143.577,439.531,143.577z"/> <path style="fill:#DDCBBD;" d="M439.531,179.668H289.334c-4.644,0-8.41-3.765-8.41-8.41c0-4.644,3.765-8.41,8.41-8.41h150.197 c4.644,0,8.41,3.765,8.41,8.41C447.941,175.903,444.176,179.668,439.531,179.668z"/> <path style="fill:#DDCBBD;" d="M439.531,215.758H289.334c-4.644,0-8.41-3.765-8.41-8.41c0-4.644,3.765-8.41,8.41-8.41h150.197 c4.644,0,8.41,3.765,8.41,8.41C447.941,211.993,444.176,215.758,439.531,215.758z"/> <path style="fill:#DDCBBD;" d="M439.531,251.85H289.334c-4.644,0-8.41-3.765-8.41-8.41c0-4.644,3.765-8.41,8.41-8.41h150.197 c4.644,0,8.41,3.765,8.41,8.41C447.941,248.084,444.176,251.85,439.531,251.85z"/> <path style="fill:#DDCBBD;" d="M439.531,287.941H289.334c-4.644,0-8.41-3.765-8.41-8.41s3.765-8.41,8.41-8.41h150.197 c4.644,0,8.41,3.765,8.41,8.41S444.176,287.941,439.531,287.941z"/> <path style="fill:#DDCBBD;" d="M439.531,324.032H289.334c-4.644,0-8.41-3.765-8.41-8.41c0-4.644,3.765-8.41,8.41-8.41h150.197 c4.644,0,8.41,3.765,8.41,8.41C447.941,320.267,444.176,324.032,439.531,324.032z"/> <path style="fill:#DDCBBD;" d="M222.667,379.398H72.469c-4.644,0-8.41-3.765-8.41-8.41s3.765-8.41,8.41-8.41h150.197 c4.644,0,8.41,3.765,8.41,8.41S227.311,379.398,222.667,379.398z"/> </g> <path style="opacity:0.3;fill:#20272E;enable-background:new ;" d="M487.078,110.123h-14.214V98.416 c0-13.423-48.547-24.305-108.432-24.305C304.547,74.111,256,84.993,256,98.416v339.475h231.078 c13.764,0,24.923-11.158,24.923-24.923V135.046C512,121.281,500.842,110.123,487.078,110.123z"/> </g>
</svg>